<!--?xml version="1.0" encoding="utf-8"?-->
<!-- Generator: Adobe Illustrator 21.0.2, SVG Export Plug-In . SVG Version: 6.00 Build 0)  -->
<svg version="1.1" id="Layer_1" xmlns="http://www.w3.org/2000/svg" xmlns:xlink="http://www.w3.org/1999/xlink" x="0px" y="0px" viewBox="0 0 287.3 104" xml:space="preserve">
<style type="text/css">
	.st0{fill:none;stroke:#000000;stroke-width:2;stroke-linecap:round;stroke-linejoin:round;}
</style>
<path class="st0 ImuYusoG_0" d="M53,23c0-51.2-85.7,24.8-37,52c42.3,23.6,72.4-57.8,86-74c-13.7,16.2-7.8,77.6-10,102"></path>
<path class="st0 ImuYusoG_1" d="M7,53c19.2,0,27.3-7.5,30-28c-1.4,9.5-8.6,25.8-11,37c0.3-1.4,6.9-20.5,8-19c1.7,2.3-2,13.6,1,15
	c1.9,0.9,17.2-9.3,11-13c-5.3-3.2-5.8,16.7,5.5,9.3C61,48.2,58.9,39,65,30c-5.6,8.3-6.5,26.8,0,32"></path>
<path class="st0 ImuYusoG_2" d="M54,41c10.4,0.2,20.8,0.9,31.2,1.1c6,0.1,13.2,1.2,19,0c3.8-0.8,6.3-2.6,7.8-6.3c0.6-1.4,2.5-9.7,1-10.7
	c-1.8-1.2-9.4,22.5-5.5,25.2c2.8,2,10.3-2.3,12.2-3.9c1.2-1.1,2.3-4.3,3.8-4.8c0.8-0.3,3.4,1.7,2.5,2.5c-1.6,1.6-6.3-2.5-4.8,2.2
	c1.1,3.5,5.3-0.5,7.1-2.2c6.2-6.1,6.7-17,6.7-25.1c0,3,0.4,6.1,0.1,9.1c-0.4,3.5-4.1,10.6-2.1,13.9c5.9,9.7,18-8,19-7
	c2.5,2.5-2.3,7.6,3.9,7.8c1.1,0,8.3-4.6,7.1-5.8c2.3,2.3-2.6,7.8,5,5c5-1.8,5-5,11-5"></path>
<path class="st0 ImuYusoG_3" d="M174,38c0,9.6,8.6,10,14.7,4.8c5.5-4.7,6.7-14.2,7.2-21c0.3-3.8,0.4-8.1-0.9-11.8c1.3,4.5-0.5,10.6-1.2,15.1
	c-0.8,5.5-2.3,11.4-1.8,16.9c-1.1-9,15.7,0.9,18.8,1.9c14.2,4.7,31.8,0.5,45.9-2.3c9.8-2,19.6-3.5,29.6-4.2"></path>
<path class="st0 ImuYusoG_4" d="M163,24l1,1"></path>
<style>.ImuYusoG_0{stroke-dasharray:348 350;stroke-dashoffset:349;animation:ImuYusoG_draw 1365ms linear 0ms forwards;}.ImuYusoG_1{stroke-dasharray:225 227;stroke-dashoffset:226;animation:ImuYusoG_draw 884ms linear 1365ms forwards;}.ImuYusoG_2{stroke-dasharray:255 257;stroke-dashoffset:256;animation:ImuYusoG_draw 1001ms linear 2250ms forwards;}.ImuYusoG_3{stroke-dasharray:187 189;stroke-dashoffset:188;animation:ImuYusoG_draw 735ms linear 3252ms forwards;}.ImuYusoG_4{stroke-dasharray:2 4;stroke-dashoffset:3;animation:ImuYusoG_draw 11ms linear 3988ms forwards;}@keyframes ImuYusoG_draw{100%{stroke-dashoffset:0;}}@keyframes ImuYusoG_fade{0%{stroke-opacity:1;}95.1219512195122%{stroke-opacity:1;}100%{stroke-opacity:0;}}</style></svg>
